<svg xmlns="http://www.w3.org/2000/svg" width="580" height="220" viewBox="0 0 580 220" font-family="Segoe UI, Helvetica Neue, Helvetica, Arial, sans-serif">
<defs>
  <linearGradient id="bgc" x1="0" y1="0" x2="1" y2="1">
    <stop offset="0%" stop-color="#0B1A21"/><stop offset="100%" stop-color="#123844"/>
  </linearGradient>
</defs>
<rect x="1" y="1" width="578" height="218" rx="16" fill="url(#bgc)" stroke="#1C4552" stroke-width="2"/>
<rect x="1" y="1" width="6" height="218" rx="3" fill="#4FD1C5"/>
<text x="30" y="46" font-size="22" font-weight="700" fill="#F7FAFC">ScholarAgent</text>
<rect x="437.0" y="22" width="113.0" height="32" rx="16" fill="#F6AD55"/>
<text x="493.5" y="44" font-size="16" font-weight="700" fill="#0B1A21" text-anchor="middle">5+ sources</text>
<text x="550" y="72" font-size="11" fill="#A0B4BD" text-anchor="end">scanned daily</text>
<text x="30" y="96" font-size="15" fill="#A0B4BD">AI agent that scans scholarship sites daily, checks</text>
<text x="30" y="118" font-size="15" fill="#A0B4BD">eligibility with Gemini and sends matches to Telegram. Runs</text>
<text x="30" y="140" font-size="15" fill="#A0B4BD">free on GitHub Actions.</text>
<rect x="30" y="178" width="60.400000000000006" height="26" rx="13" fill="#1C4552"/>
<text x="60.2" y="195.5" font-size="12.5" font-weight="600" fill="#4FD1C5" text-anchor="middle">Python</text>
<rect x="98.4" y="178" width="90.0" height="26" rx="13" fill="#1C4552"/>
<text x="143.4" y="195.5" font-size="12.5" font-weight="600" fill="#4FD1C5" text-anchor="middle">Gemini API</text>
<rect x="196.4" y="178" width="119.60000000000001" height="26" rx="13" fill="#1C4552"/>
<text x="256.2" y="195.5" font-size="12.5" font-weight="600" fill="#4FD1C5" text-anchor="middle">GitHub Actions</text>
<rect x="324.0" y="178" width="75.2" height="26" rx="13" fill="#1C4552"/>
<text x="361.6" y="195.5" font-size="12.5" font-weight="600" fill="#4FD1C5" text-anchor="middle">Telegram</text>
</svg>